<?xml version="1.0" encoding="UTF-8" ?>
<!DOCTYPE svg PUBLIC "-//W3C//DTD SVG 1.1//EN" "http://www.w3.org/Graphics/SVG/1.1/DTD/svg11.dtd">
<svg width="96pt" height="96pt" viewBox="0 0 96 96" version="1.1" xmlns="http://www.w3.org/2000/svg">
<path fill="#ffffff" d=" M 0.00 0.00 L 96.00 0.00 L 96.00 96.00 L 0.00 96.00 L 0.00 0.00 Z" />
<path fill="#2196f3" d=" M 8.72 25.09 C 9.79 21.69 13.52 19.87 16.92 20.02 C 37.64 19.99 58.36 19.99 79.09 20.02 C 82.48 19.88 86.29 21.70 87.28 25.15 L 87.03 25.90 C 73.89 35.09 61.06 44.73 48.00 54.03 C 34.93 44.71 22.07 35.10 8.94 25.86 L 8.72 25.09 Z" />
<path fill="#0d47a1" d=" M 8.35 25.92 L 8.94 25.86 C 22.07 35.10 34.93 44.71 48.00 54.03 C 61.06 44.73 73.89 35.09 87.03 25.90 L 87.65 25.91 C 87.96 27.23 88.09 28.59 88.03 29.99 C 74.68 39.63 61.38 49.35 48.00 58.97 C 34.62 49.35 21.32 39.63 7.97 29.98 C 7.92 28.59 8.05 27.23 8.35 25.92 Z" />
<path fill="#2196f3" d=" M 7.97 29.98 C 21.32 39.63 34.62 49.35 48.00 58.97 C 61.38 49.35 74.68 39.63 88.03 29.99 C 87.90 42.68 88.14 55.39 87.92 68.08 C 87.97 72.72 83.57 76.37 79.05 75.98 C 58.34 76.01 37.63 76.01 16.93 75.98 C 12.43 76.36 8.04 72.73 8.08 68.11 C 7.86 55.41 8.11 42.69 7.97 29.98 Z" />
</svg>
